/* XPM */
static char * close_pressed_xpm[] = {
"30 25 40 1",
" 	c None",
".	c #86D3D3",
"+	c #85D2D2",
"@	c #87D3D3",
"#	c #86D2D2",
"$	c #88D3D3",
"%	c #141414",
"&	c #111111",
"*	c #8CD5D5",
"=	c #89D4D4",
"-	c #151515",
";	c #B7E4E4",
">	c #252424",
",	c #1A1A1A",
"'	c #B0E2E2",
")	c #191919",
"!	c #8BD4D4",
"~	c #242424",
"{	c #252425",
"]	c #0C0C0C",
"^	c #1B1B1B",
"/	c #9FDCDC",
"(	c #1B1C1B",
"_	c #242425",
":	c #0D0D0D",
"<	c #8AD4D4",
"[	c #8BD5D5",
"}	c #1B1B1C",
"|	c #1C1B1B",
"1	c #121213",
"2	c #84CED5",
"3	c #242525",
"4	c #242524",
"5	c #121312",
"6	c #111211",
"7	c #9FD7DE",
"8	c #252525",
"9	c #161616",
"0	c #080908",
"a	c #89D3D3",
"..............................",
"..............................",
"..............................",
"..............................",
"..........+.@#...$@...........",
"..........$%&*+=&-;...........",
".........$%>,&'&)>-!..........",
"..........&~{,])~^]*..........",
"........../&~>(_^:<+..........",
"..........#[]}~|12+...........",
"..........*&)~^3,&*...........",
".........@&)4^5>~,6@..........",
"..........-~^]7&8~9$..........",
"..........*9];+=&0a@..........",
"...........a$...$<@...........",
"..............................",
"..............................",
"..............................",
"..............................",
"..............................",
"..............................",
"..............................",
"..............................",
"..............................",
".............................."};
