/* XPM */
static char * close_prelight_xpm[] = {
"30 25 24 1",
" 	c None",
".	c #092433",
"+	c #2BB6CA",
"@	c #218D9C",
"#	c #208796",
"$	c #2DBBD0",
"%	c #9CDEDE",
"&	c #91CFD9",
"*	c #75D4E1",
"=	c #36C0D4",
"-	c #92D0D9",
";	c #2394A4",
">	c #74D3E1",
",	c #87D9E5",
"'	c #95DEE8",
")	c #86D9E5",
"!	c #99DFE9",
"~	c #588A94",
"{	c #92CFD9",
"]	c #218B9A",
"^	c #3FC3D6",
"/	c #39C1D5",
"(	c #2392A2",
"_	c #41C3D6",
"..............................",
"..............................",
"..............................",
"..............................",
"..............................",
"...........+@...#$............",
"..........+%&@.#*%=...........",
"..........@%%-;>%,;...........",
"...........@%%'%);............",
"............;'%!~.............",
"...........#*%!%{]............",
"..........#>%)~%%&]...........",
"..........$%);.@%%^...........",
".........../(...@_............",
"..............................",
"..............................",
"..............................",
"..............................",
"..............................",
"..............................",
"..............................",
"..............................",
"..............................",
"..............................",
".............................."};
