/* XPM */
static char * close_inactive_xpm[] = {
"30 25 31 1",
" 	c None",
".	c #0C3247",
"+	c #1A6F7C",
"@	c #14565F",
"#	c #354C5D",
"$	c #14535C",
"%	c #1B7380",
"&	c #354B5C",
"*	c #4AC6D8",
"=	c #26A1B3",
"-	c #259BAC",
";	c #1D7986",
">	c #364D5F",
",	c #145660",
"'	c #49C6D8",
")	c #155962",
"!	c #27A5B8",
"~	c #155963",
"{	c #364E5F",
"]	c #29ADC0",
"^	c #344B5C",
"/	c #29AFC2",
"(	c #17626D",
"_	c #259BAD",
":	c #2AB0C3",
"<	c #155760",
"[	c #155761",
"}	c #1C7683",
"|	c #1E7E8C",
"1	c #1D7B88",
"2	c #1F7F8D",
"..............................",
"..............................",
"..............................",
"..............................",
"..............................",
"...........+@#.#$%&...........",
"..........+*=@#$-*;>..........",
"..........,'*=)-*!~{..........",
"...........@'*]*!~^...........",
"...........#~]*/(#............",
"..........#$_*:*=<............",
"..........$-*!(**=[...........",
"..........}*!~#@**|...........",
"...........1~...@2............",
"..............................",
"..............................",
"..............................",
"..............................",
"..............................",
"..............................",
"..............................",
"..............................",
"..............................",
"..............................",
".............................."};
